<?xml version="1.0" encoding="UTF-8"?>
<svg xmlns="http://www.w3.org/2000/svg" viewBox="0 0 476.43 529.74">
  <defs>
    <style>
      .cls-1 {
        fill: #383838;
      }

      .cls-1, .cls-2, .cls-3, .cls-4, .cls-5, .cls-6, .cls-7, .cls-8, .cls-9 {
        stroke-miterlimit: 10;
      }

      .cls-1, .cls-2, .cls-4, .cls-5, .cls-6, .cls-7, .cls-8, .cls-9 {
        stroke: #231f20;
      }

      .cls-2 {
        fill: #87171a;
      }

      .cls-3 {
        fill: #2d2d2d;
        stroke: #ae975a;
        stroke-width: 9px;
      }

      .cls-4 {
        fill: #b72525;
      }

      .cls-5 {
        fill: #ae975a;
      }

      .cls-6 {
        fill: #fff;
      }

      .cls-7 {
        fill: #bb2025;
      }

      .cls-8 {
        fill: #d6d6d6;
      }

      .cls-9 {
        fill: #991c1f;
      }
    </style>
  </defs>
  <g id="Layer_13" data-name="Layer 13">
    <circle class="cls-3" cx="238.21" cy="291.53" r="233.71"/>
  </g>
  <g id="RDM_hat" data-name="RDM hat">
    <g>
      <path class="cls-2" d="M253.07,89.99s-68.57,28.46,19.54,124.46c36.59,39.86-38.14,134.37-87.43,179.31-69.42,63.31-130.97,72-130.97,72,0,0,45.6-38.4,63.77-119.66,18.17-81.26-9.6-193.37,135.09-256.11Z"/>
      <path class="cls-9" d="M116.27,437.3s-36.19-197.59,4.8-237.6l80.57,2.74-85.37,234.86Z"/>
      <path class="cls-1" d="M119.01,408.16s-21.26-160.69,7.89-199.89c29.14-39.2,144,31.89,144,31.89l-151.89,168Z"/>
      <path class="cls-9" d="M115.44,443.21s8.44-137.39,24.88-211.85c8.13-36.82,14.05-35.66,30.06-39.36,48.37-11.19,143.03,40.13,143.03,40.13l-197.97,211.08Z"/>
      <path class="cls-6" d="M249.3,282.67l42.17-32.57,35.66-38.4,42.17-43.2,17.83-12,11.31-10.63,9.6-12.34,5.49-12.34v-27.77l2.06-12.34,4.11-12,4.11-5.14-8.23,2.4-4.46,1.03s-8.57,3.43-9.26,5.49-8.23,16.11-8.23,16.11l-1.37,21.6-.69,11.31-2.74-7.2-1.37-7.2s-4.46,10.63-4.46,12.69,1.03,7.89,1.03,7.89c0,0-1.37,5.49-2.06,7.2s-5.49,8.57-5.49,8.57l-13.37,16.46-62.74,69.6-51.09,52.8Z"/>
      <path class="cls-8" d="M232.15,311.13l9.75-33.6,10.82-25.37,5.14-28.46,6.86-52.46,13.37-53.14,12-55.89,39.77-46.29,50.74-3.77,39.77,22.63,16.11,26.4-26.4-13.37,2.4,6.17-14.06-7.2,3.43,6.17-8.23-3.43-7.2,1.37-6.86,6.17,9.26-1.03-16.11,10.29-8.91,9.26,8.91-3.43-9.26,9.26-6.17,5.49-3.09,5.49,5.83-3.77-8.23,10.29-12.34,13.37-15.43,20.57,7.2-6.17,13.37-10.63-4.11,9.6s-7.54,9.94-8.57,11.66-10.46,16.8-10.46,16.8l-4.63,14.74s6.86-8.91,8.57-9.94,16.11-11.31,16.11-11.31c0,0-4.11,7.89-4.8,8.91s-15.26,15.09-15.26,15.09l-16.63,19.54,12-3.09,12.34-10.63-7.71,15.09-12.17,13.37-15.43,12.34-12.69,15.43-6.51,14.4-7.89,16.11-13.03,30.86-21.6,16.11Z"/>
      <path class="cls-6" d="M224.27,312.5l14.4-39.09v-29.14l-3.09-6.86-2.74-7.89-1.37-2.74-7.2-3.09-4.8-1.71h-5.83c3.77-2.74,12.51-5.14,12.51-5.14,0,0-11.14-1.71-12.51-2.06s-3.43-.69-3.43-.69l-4.11-2.4-2.06-4.46-1.71-3.43,4.46,3.43s-1.03,1.37,1.37,2.4,0,1.03,4.11,1.37,12,.69,12,.69h14.4s4.8.69,5.83,3.09,1.71,4.11,1.71,4.11c0,0-1.03,7.2,0,8.57s1.71,6.51,1.71,7.54v10.97c0,2.4,1.37,4.46,0,7.89l-1.37,3.43,3.43-13.37v-8.91l2.74-10.29v-13.03s1.37-6.86,1.37-7.89,1.37-12.34,1.37-12.34c0,0,2.06-11.31,2.4-12.34s3.09-14.4,3.09-14.4l3.09-12v-10.97l3.43-10.97v-8.91l1.71-11.31v-20.91s2.74-11.31,2.74-12.34,3.09-15.43,3.09-15.43l3.77-8.91,6.86-12,7.54-7.89,6.86-7.89,6.51-4.75s6.51-5.53,7.89-6.56,5.49-4.11,6.86-4.46,5.83-2.74,7.2-3.09,9.26-2.74,9.26-2.74l21.26-3.09h25.37l6.51,1.71,8.57,3.09,5.83,4.11,8.57,5.49,9.26,8.57,7.54,12s7.54,10.29,7.89,13.03,2.06,14.06,2.06,15.43-1.71,15.43-1.71,15.43l-4.11,6.86s1.37-9.6,1.37-10.97-.34-7.89-1.37-9.6-4.8-11.66-4.8-11.66l-3.77-4.46-4.8-3.09-4.11-1.71c1.9.79,1.71,2.74,2.74,4.8s3.77,5.14,3.77,5.14l1.71,3.77-4.11-2.74s-4.11-2.4-4.8-4.11-.34-4.11-3.43-5.83-5.14-1.71-6.86-3.09-6.51-6.17-7.2-7.2-4.46-4.46-4.46-4.46l-9.6-4.46s-6.86-3.43-8.91-3.77c-.98-.16-4-.71-6.88-1.23-3.15-.57-6.15-1.12-6.15-1.12,0,0,9.6,5.44,11.66,7.15s5.83,2.74,7.89,6.86,3.09,9.94,3.09,9.94c0,0-.69-2.4-3.43-4.8s-2.74-4.11-6.17-6.51-2.4-2.06-6.17-4.11-3.43-2.74-7.2-3.09-12-.34-16.8-.69-12.69-.34-12.69-.34c0,0,2.06.34,5.83,3.09s4.11,2.74,5.49,4.11l4.11,4.11,1.71,2.74-5.83-3.43-5.49-2.4-4.8-.34s-7.89.34-8.91.34-7.2,2.74-7.2,2.74l-9.6,6.51-4.8,5.14,11.66-5.14h6l6.69-3.09-3.77,3.77-5.14,5.49-6.51,4.11-6.86,6.17-5.83,7.89-3.11,6.22-1.35,2.7,4.11-3.43,4.8-2.06-8.91,10.63-3.77,3.09-2.4,3.77-2.4,5.83-2.4,9.6-2.06,8.91,4.46-6.17s9.26-7.54,10.63-8.23,5.14-2.06,5.14-2.06l-5.49,5.14-5.83,5.83-3.77,5.49s-6.17,9.94-6.51,11.66-3.43,13.03-3.43,14.06-3.77,12.69-3.77,12.69l-2.74,13.37-1.37,6.51,4.11-4.11,5.14-5.14s0,3.09-.69,4.46-1.37,2.4-3.43,5.49-5.14,8.57-5.14,8.57l-3.09,4.46-1.03,9.26-1.71,10.29v11.66l-.69,7.89-3.09,11.66-2.4,11.31-1.71,8.91-8.23,13.71-6.02,15.43-6.32,14.74-11.31,13.71Z"/>
      <polygon class="cls-5" points="201.3 352.96 205.41 304.27 222.9 287.13 222.9 273.76 219.13 262.1 230.44 277.53 232.5 286.44 238.33 271.7 238.33 262.1 241.91 271.36 241.91 281.99 261.98 278.56 235.58 335.47 201.3 352.96"/>
      <path class="cls-4" d="M54.21,465.76s69.94-23.31,106.63-75.77c0,0,55.89-80.57,116.23-142.63,0,0,45.94-56.57,54.51-79.2s20.91-37.37,19.89-61.71c0,0,4.11-9.6-24.34-6.51,0,0,38.06-16.11,45.6,5.83s0,62.06,11.31,87.09c0,0,4.8,7.2,9.94,6.17s14.06,2.74,4.46,41.14-36.34,65.49-36.34,65.49c0,0-98.61,48.63-107.67,52.71,0,0-87.76,42.26-125.47,117,0,0-48.69,6.86-74.74-9.6Z"/>
      <polygon class="cls-5" points="116.27 424.96 123.13 400.27 127.58 402.67 137.87 388.61 127.07 393.07 122.78 386.56 135.13 374.9 141.3 379.01 150.21 374.9 141.64 371.47 153.98 364.96 150.9 349.19 141.3 361.87 132.04 358.1 139.58 343.7 147.81 340.96 149.87 302.9 135.13 320.73 140.95 323.47 135.13 334.79 119.7 336.5 108.04 322.44 105.64 340.27 100.5 320.73 102.55 321.76 96.73 307.7 101.87 344.73 99.13 353.64 107.35 363.93 108.38 375.59 116.27 424.96"/>
      <polygon class="cls-7" points="114.21 410.21 120.73 382.44 110.1 373.87 101.18 390.33 114.21 410.21"/>
    </g>
  </g>
</svg>